<svg width="80" height="24" viewBox="0 0 80 24" fill="none" xmlns="http://www.w3.org/2000/svg">
<path d="M9.82359 24C7.86092 24 6.13292 23.616 4.63959 22.848C3.16759 22.08 2.02625 21.0347 1.21559 19.712C0.404919 18.368 -0.000414014 16.8427 -0.000414014 15.136C-0.000414014 13.408 0.394253 11.8827 1.18359 10.56C1.99425 9.216 3.09292 8.17067 4.47959 7.424C5.86625 6.656 7.43425 6.272 9.18359 6.272C10.8689 6.272 12.3836 6.63467 13.7276 7.36C15.0929 8.064 16.1703 9.088 16.9596 10.432C17.7489 11.7547 18.1436 13.344 18.1436 15.2C18.1436 15.392 18.1329 15.616 18.1116 15.872C18.0903 16.1067 18.0689 16.3307 18.0476 16.544H4.06359V13.632H15.4236L13.5036 14.496C13.5036 13.6 13.3223 12.8213 12.9596 12.16C12.5969 11.4987 12.0956 10.9867 11.4556 10.624C10.8156 10.24 10.0689 10.048 9.21559 10.048C8.36225 10.048 7.60492 10.24 6.94359 10.624C6.30359 10.9867 5.80225 11.5093 5.43959 12.192C5.07692 12.8533 4.89559 13.6427 4.89559 14.56V15.328C4.89559 16.2667 5.09825 17.0987 5.50359 17.824C5.93025 18.528 6.51692 19.072 7.26359 19.456C8.03159 19.8187 8.92759 20 9.95159 20C10.8689 20 11.6689 19.8613 12.3516 19.584C13.0556 19.3067 13.6956 18.8907 14.2716 18.336L16.9276 21.216C16.1383 22.112 15.1463 22.8053 13.9516 23.296C12.7569 23.7653 11.3809 24 9.82359 24ZM21.4671 23.744V1.90735e-06H26.4591V23.744H21.4671ZM39.2841 24C37.4494 24 35.8174 23.616 34.3881 22.848C32.9801 22.08 31.8601 21.0347 31.0281 19.712C30.2174 18.368 29.8121 16.8427 29.8121 15.136C29.8121 13.408 30.2174 11.8827 31.0281 10.56C31.8601 9.216 32.9801 8.17067 34.3881 7.424C35.8174 6.656 37.4494 6.272 39.2841 6.272C41.0974 6.272 42.7188 6.656 44.1481 7.424C45.5774 8.17067 46.6974 9.20534 47.5081 10.528C48.3188 11.8507 48.7241 13.3867 48.7241 15.136C48.7241 16.8427 48.3188 18.368 47.5081 19.712C46.6974 21.0347 45.5774 22.08 44.1481 22.848C42.7188 23.616 41.0974 24 39.2841 24ZM39.2841 19.904C40.1161 19.904 40.8628 19.712 41.5241 19.328C42.1854 18.944 42.7081 18.4 43.0921 17.696C43.4761 16.9707 43.6681 16.1173 43.6681 15.136C43.6681 14.1333 43.4761 13.28 43.0921 12.576C42.7081 11.872 42.1854 11.328 41.5241 10.944C40.8628 10.56 40.1161 10.368 39.2841 10.368C38.4521 10.368 37.7054 10.56 37.0441 10.944C36.3828 11.328 35.8494 11.872 35.4441 12.576C35.0601 13.28 34.8681 14.1333 34.8681 15.136C34.8681 16.1173 35.0601 16.9707 35.4441 17.696C35.8494 18.4 36.3828 18.944 37.0441 19.328C37.7054 19.712 38.4521 19.904 39.2841 19.904ZM52.0608 23.744V6.528H56.8288V11.392L56.1568 9.984C56.6688 8.768 57.4902 7.85067 58.6208 7.232C59.7515 6.592 61.1275 6.272 62.7488 6.272V10.88C62.5355 10.8587 62.3435 10.848 62.1728 10.848C62.0022 10.8267 61.8208 10.816 61.6288 10.816C60.2635 10.816 59.1542 11.2107 58.3008 12C57.4688 12.768 57.0528 13.9733 57.0528 15.616V23.744H52.0608ZM75.1521 23.744V20.384L74.8321 19.648V13.632C74.8321 12.5653 74.5014 11.7333 73.8401 11.136C73.2001 10.5387 72.2081 10.24 70.8641 10.24C69.9468 10.24 69.0401 10.3893 68.1441 10.688C67.2694 10.9653 66.5228 11.3493 65.9041 11.84L64.1121 8.352C65.0508 7.69067 66.1814 7.17867 67.5041 6.816C68.8268 6.45334 70.1708 6.272 71.5361 6.272C74.1601 6.272 76.1974 6.89067 77.6481 8.128C79.0988 9.36534 79.8241 11.296 79.8241 13.92V23.744H75.1521ZM69.9041 24C68.5601 24 67.4081 23.776 66.4481 23.328C65.4881 22.8587 64.7521 22.2293 64.2401 21.44C63.7281 20.6507 63.4721 19.7653 63.4721 18.784C63.4721 17.76 63.7174 16.864 64.2081 16.096C64.7201 15.328 65.5201 14.7307 66.6081 14.304C67.6961 13.856 69.1148 13.632 70.8641 13.632H75.4401V16.544H71.4081C70.2348 16.544 69.4241 16.736 68.9761 17.12C68.5494 17.504 68.3361 17.984 68.3361 18.56C68.3361 19.2 68.5814 19.712 69.0721 20.096C69.5841 20.4587 70.2774 20.64 71.1521 20.64C71.9841 20.64 72.7308 20.448 73.3921 20.064C74.0534 19.6587 74.5334 19.072 74.8321 18.304L75.6001 20.608C75.2374 21.7173 74.5761 22.56 73.6161 23.136C72.6561 23.712 71.4188 24 69.9041 24Z" fill="#3A9BA5"/>
</svg>
