<svg width="52" height="52" viewBox="0 0 52 52" fill="none" xmlns="http://www.w3.org/2000/svg">
<path d="M0 26C0 40.3594 11.6406 52 26 52C40.3594 52 52 40.3594 52 26C52 11.6406 40.3594 0 26 0C11.6406 0 0 11.6406 0 26Z" fill="#1877F2"/>
<path d="M39 26C39 18.85 33.15 13 26 13C18.85 13 13 18.85 13 26C13 32.5 17.7125 37.8625 23.8875 38.8375V29.7375H20.6375V26H23.8875V23.075C23.8875 19.825 25.8375 18.0375 28.7625 18.0375C30.225 18.0375 31.6875 18.3625 31.6875 18.3625V21.6125H30.0625C28.4375 21.6125 27.95 22.5875 27.95 23.5625V26H31.525L30.875 29.7375H27.7875V39C34.2875 38.025 39 32.5 39 26Z" fill="white"/>
</svg>
