<svg width="52" height="52" viewBox="0 0 52 52" fill="none" xmlns="http://www.w3.org/2000/svg">
<path d="M0 26C0 40.3594 11.6406 52 26 52C40.3594 52 52 40.3594 52 26C52 11.6406 40.3594 0 26 0C11.6406 0 0 11.6406 0 26Z" fill="#F00073"/>
<path d="M26.0002 14.9502C29.5752 14.9502 30.0627 14.9502 31.5252 14.9502C32.8252 14.9502 33.4752 15.2752 33.9627 15.4377C34.6127 15.7627 35.1002 15.9252 35.5877 16.4127C36.0752 16.9002 36.4002 17.3877 36.5627 18.0377C36.7252 18.5252 36.8877 19.1752 37.0502 20.4752C37.0502 21.9377 37.0502 22.2627 37.0502 26.0002C37.0502 29.7377 37.0502 30.0627 37.0502 31.5252C37.0502 32.8252 36.7252 33.4752 36.5627 33.9627C36.2377 34.6127 36.0752 35.1002 35.5877 35.5877C35.1002 36.0752 34.6127 36.4002 33.9627 36.5627C33.4752 36.7252 32.8252 36.8877 31.5252 37.0502C30.0627 37.0502 29.7377 37.0502 26.0002 37.0502C22.2627 37.0502 21.9377 37.0502 20.4752 37.0502C19.1752 37.0502 18.5252 36.7252 18.0377 36.5627C17.3877 36.2377 16.9002 36.0752 16.4127 35.5877C15.9252 35.1002 15.6002 34.6127 15.4377 33.9627C15.2752 33.4752 15.1127 32.8252 14.9502 31.5252C14.9502 30.0627 14.9502 29.7377 14.9502 26.0002C14.9502 22.2627 14.9502 21.9377 14.9502 20.4752C14.9502 19.1752 15.2752 18.5252 15.4377 18.0377C15.7627 17.3877 15.9252 16.9002 16.4127 16.4127C16.9002 15.9252 17.3877 15.6002 18.0377 15.4377C18.5252 15.2752 19.1752 15.1127 20.4752 14.9502C21.9377 14.9502 22.4252 14.9502 26.0002 14.9502ZM26.0002 12.5127C22.2627 12.5127 21.9377 12.5127 20.4752 12.5127C19.0127 12.5127 18.0377 12.8377 17.2252 13.1627C16.4127 13.4877 15.6002 13.9752 14.7877 14.7877C13.9752 15.6002 13.6502 16.2502 13.1627 17.2252C12.8377 18.0377 12.6752 19.0127 12.5127 20.4752C12.5127 21.9377 12.5127 22.4252 12.5127 26.0002C12.5127 29.7377 12.5127 30.0627 12.5127 31.5252C12.5127 32.9877 12.8377 33.9627 13.1627 34.7752C13.4877 35.5877 13.9752 36.4002 14.7877 37.2127C15.6002 38.0252 16.2502 38.3502 17.2252 38.8377C18.0377 39.1627 19.0127 39.3252 20.4752 39.4877C21.9377 39.4877 22.4252 39.4877 26.0002 39.4877C29.5752 39.4877 30.0627 39.4877 31.5252 39.4877C32.9877 39.4877 33.9627 39.1627 34.7752 38.8377C35.5877 38.5127 36.4002 38.0252 37.2127 37.2127C38.0252 36.4002 38.3502 35.7502 38.8377 34.7752C39.1627 33.9627 39.3252 32.9877 39.4877 31.5252C39.4877 30.0627 39.4877 29.5752 39.4877 26.0002C39.4877 22.4252 39.4877 21.9377 39.4877 20.4752C39.4877 19.0127 39.1627 18.0377 38.8377 17.2252C38.5127 16.4127 38.0252 15.6002 37.2127 14.7877C36.4002 13.9752 35.7502 13.6502 34.7752 13.1627C33.9627 12.8377 32.9877 12.6752 31.5252 12.5127C30.0627 12.5127 29.7377 12.5127 26.0002 12.5127Z" fill="white"/>
<path d="M26.0002 19.0127C22.1002 19.0127 19.0127 22.1002 19.0127 26.0002C19.0127 29.9002 22.1002 32.9877 26.0002 32.9877C29.9002 32.9877 32.9877 29.9002 32.9877 26.0002C32.9877 22.1002 29.9002 19.0127 26.0002 19.0127ZM26.0002 30.5502C23.5627 30.5502 21.4502 28.6002 21.4502 26.0002C21.4502 23.5627 23.4002 21.4502 26.0002 21.4502C28.4377 21.4502 30.5502 23.4002 30.5502 26.0002C30.5502 28.4377 28.4377 30.5502 26.0002 30.5502Z" fill="white"/>
<path d="M33.1502 20.4752C34.0477 20.4752 34.7752 19.7477 34.7752 18.8502C34.7752 17.9527 34.0477 17.2252 33.1502 17.2252C32.2527 17.2252 31.5252 17.9527 31.5252 18.8502C31.5252 19.7477 32.2527 20.4752 33.1502 20.4752Z" fill="white"/>
</svg>
