<svg width="52" height="52" viewBox="0 0 52 52" fill="none" xmlns="http://www.w3.org/2000/svg">
<path d="M0 26C0 40.3594 11.6406 52 26 52C40.3594 52 52 40.3594 52 26C52 11.6406 40.3594 0 26 0C11.6406 0 0 11.6406 0 26Z" fill="#2867B2"/>
<path d="M18.85 39H13.325V21.6125H18.85V39ZM16.0875 19.175C14.3 19.175 13 17.875 13 16.0875C13 14.3 14.4625 13 16.0875 13C17.875 13 19.175 14.3 19.175 16.0875C19.175 17.875 17.875 19.175 16.0875 19.175ZM39 39H33.475V29.575C33.475 26.8125 32.3375 26 30.7125 26C29.0875 26 27.4625 27.3 27.4625 29.7375V39H21.9375V21.6125H27.1375V24.05C27.625 22.9125 29.575 21.125 32.3375 21.125C35.425 21.125 38.675 22.9125 38.675 28.275V39H39Z" fill="white"/>
</svg>
