<svg width="52" height="52" viewBox="0 0 52 52" fill="none" xmlns="http://www.w3.org/2000/svg">
<path d="M0 26C0 40.3594 11.6406 52 26 52C40.3594 52 52 40.3594 52 26C52 11.6406 40.3594 0 26 0C11.6406 0 0 11.6406 0 26Z" fill="white"/>
<path d="M16.0875 19.8246C16.0875 19.4996 15.925 19.1746 15.7625 19.0121L13.325 16.0871V15.5996H20.8L26.65 28.4371L31.85 15.5996H39V16.0871L36.8875 18.0371C36.725 18.1996 36.5625 18.3621 36.725 18.6871V33.3121C36.725 33.4746 36.725 33.7996 36.8875 33.9621L38.8375 35.9121V36.3996H28.6V35.9121L30.7125 33.7996C30.875 33.6371 30.875 33.4746 30.875 33.1496V21.2871L25.025 36.0746H24.375L17.55 21.2871V31.1996C17.55 31.6871 17.7125 32.0121 17.875 32.3371L20.6375 35.5871V36.0746H13V35.5871L15.7625 32.3371C16.0875 32.0121 16.25 31.6871 16.0875 31.1996V19.8246Z" fill="black"/>
</svg>
