<svg width="52" height="52" viewBox="0 0 52 52" fill="none" xmlns="http://www.w3.org/2000/svg">
<path d="M0 26C0 11.6406 11.6406 0 26 0C40.3594 0 52 11.6406 52 26C52 40.3594 40.3594 52 26 52C11.6406 52 0 40.3594 0 26Z" fill="black"/>
<path d="M23.5598 23.2378V22.2257C23.2131 22.1794 22.8605 22.1504 22.4964 22.1504C18.1562 22.1447 14.625 25.6788 14.625 30.0285C14.625 32.695 15.9542 35.055 17.9886 36.4837C16.6767 35.0782 15.8733 33.1867 15.8733 31.1159C15.8733 26.8298 19.3063 23.3362 23.5598 23.2378Z" fill="#25F4EE"/>
<path d="M23.7507 34.7139C25.6868 34.7139 27.2703 33.1695 27.3397 31.2492L27.3455 14.0874H30.4778C30.4142 13.7346 30.3796 13.3702 30.3796 13H26.1029L26.0971 30.1618C26.0278 32.0821 24.4442 33.6264 22.5081 33.6264C21.9071 33.6264 21.3407 33.4761 20.8379 33.21C21.4852 34.1181 22.5486 34.7139 23.7507 34.7139Z" fill="#25F4EE"/>
<path d="M36.3321 19.9125V18.9582C35.1358 18.9582 34.0261 18.6053 33.0898 17.9922C33.922 18.9466 35.049 19.6408 36.3321 19.9125Z" fill="#25F4EE"/>
<path d="M33.0898 17.9922C32.1767 16.9453 31.6276 15.5802 31.6276 14.0879H30.4834C30.7781 15.719 31.7491 17.1188 33.0898 17.9922Z" fill="#FE2C55"/>
<path d="M22.502 26.4253C20.5197 26.4253 18.9072 28.0391 18.9072 30.0231C18.9072 31.4056 19.6932 32.6086 20.8375 33.2102C20.4099 32.6202 20.1556 31.8972 20.1556 31.1105C20.1556 29.1266 21.768 27.5128 23.7503 27.5128C24.1202 27.5128 24.4785 27.5764 24.8137 27.6805V23.3077C24.4669 23.2614 24.1144 23.2324 23.7503 23.2324C23.6867 23.2324 23.6289 23.2382 23.5654 23.2382V26.5931C23.2244 26.4889 22.8718 26.4253 22.502 26.4253Z" fill="#FE2C55"/>
<path d="M36.3319 19.9121V23.238C34.1126 23.238 32.0552 22.5266 30.3791 21.3234V30.0287C30.3791 34.3726 26.848 37.9126 22.5019 37.9126C20.8259 37.9126 19.2655 37.3804 17.9883 36.4839C19.4273 38.0282 21.479 39 23.7503 39C28.0905 39 31.6275 35.4659 31.6275 31.1161V22.4109C33.3035 23.614 35.3609 24.3254 37.5802 24.3254V20.0452C37.1467 20.0452 36.7306 19.9989 36.3319 19.9121Z" fill="#FE2C55"/>
<path d="M30.3791 30.0291V21.3239C32.0552 22.527 34.1126 23.2385 36.3319 23.2385V19.9126C35.0489 19.6408 33.9219 18.9466 33.0897 17.9922C31.7488 17.1188 30.7837 15.719 30.4774 14.0879H27.345L27.3392 31.2496C27.2699 33.1699 25.6863 34.7143 23.7503 34.7143C22.5482 34.7143 21.4906 34.1186 20.8317 33.2162C19.6874 32.6089 18.9014 31.4116 18.9014 30.0291C18.9014 28.0452 20.5138 26.4314 22.4962 26.4314C22.866 26.4314 23.2244 26.495 23.5596 26.5991V23.2442C19.306 23.3368 15.873 26.8304 15.873 31.1166C15.873 33.1873 16.6764 35.073 17.9883 36.4843C19.2655 37.3809 20.8259 37.913 22.5019 37.913C26.8422 37.913 30.3791 34.3731 30.3791 30.0291Z" fill="white"/>
</svg>
