<svg width="129" height="20" viewBox="0 0 129 20" fill="none" xmlns="http://www.w3.org/2000/svg">
<path d="M47.2061 9.49482C48.2067 9.28928 49.157 9.16905 50.3568 9.01551C50.3574 9.01538 50.3581 9.01525 50.3587 9.01512C50.5297 8.99323 50.7085 8.97037 50.8898 8.94684C52.3572 8.75459 54.2668 8.49393 57.1009 7.9391C59.1116 7.54416 60.8684 7.27963 62.2795 7.11494C63.0765 7.02057 63.7618 6.96149 64.3297 6.92934C64.6236 6.913 64.9242 6.86929 65.6637 6.70897C66.0353 6.62827 66.5052 6.52083 67.1248 6.37587C67.3179 6.33064 67.5246 6.28197 67.746 6.22964C68.2494 6.11045 68.8306 5.97165 69.5126 5.80674C71.7606 5.26159 75.2815 4.26959 78.3535 3.20879C79.3871 2.85046 80.3895 2.47469 81.1661 2.12651C81.9569 1.76893 82.679 1.46909 83.351 1.2152C84.4532 0.803755 85.5784 0.431029 86.9089 0.178174C87.6069 0.0670841 88.2298 -0.0781772 89.4366 0.0512588C89.5913 0.0726726 89.7542 0.100522 89.9599 0.152691C90.1525 0.202725 90.376 0.271494 90.6443 0.396386C91.1287 0.610626 92.0334 1.2248 92.3722 2.33751C92.6932 3.41511 92.3912 4.21785 92.2142 4.62719C92.0042 5.08507 91.7993 5.34938 91.6054 5.58627C90.4306 6.87526 89.4849 7.27217 88.423 7.79952C87.4805 8.2141 86.5235 8.80891 85.6649 9.61813C85.091 10.1598 84.5622 10.7376 84.1649 11.3059C83.9683 11.584 83.8069 11.8726 83.7147 12.0633C83.667 12.1569 83.6415 12.2235 83.6091 12.2012C83.5764 12.1878 83.5206 12.0244 83.3164 11.8545C83.1922 11.7511 83.0386 11.6923 82.9469 11.6847C83.028 11.7245 83.1094 11.7638 83.1911 11.8026C84.6622 12.5023 86.2763 13.0714 88.0946 13.4148C91.3454 14.0055 94.049 13.8424 96.9584 13.442C98.0969 13.278 99.2764 13.0629 100.54 12.7784C101.901 12.4682 103.67 12.0243 105.447 11.3068C106.324 10.9465 107.238 10.5999 108.159 10.2757C108.405 10.1891 108.653 10.1035 108.899 10.0199C108.901 10.0195 108.902 10.0191 108.903 10.0187C111.56 9.11813 114.209 8.4178 116.151 7.92468C119.239 7.15046 120.402 6.88503 121.37 6.64709C121.734 6.55922 122.072 6.47834 122.474 6.38393C123.923 6.04245 126.115 5.55439 128.317 4.96603C128.325 4.96377 128.334 4.96152 128.342 4.95927C128.708 4.86211 129.002 4.78059 129 4.78039C128.998 4.78014 128.704 4.87013 128.341 4.97818C127.184 5.32019 126.048 5.62807 125.029 5.89629C124.983 5.93397 124.715 6.02788 124.386 6.11664C123.567 6.34779 121.039 6.99478 117.13 8.17482C117.402 8.11137 117.631 8.05978 117.832 8.01502C118.067 7.96252 118.247 7.92331 118.402 7.88916C118.726 7.81795 118.94 7.77002 119.319 7.67165C120.192 7.43354 121.56 7.05054 123 6.63826C123.363 6.53488 123.665 6.48051 123.674 6.5183C123.683 6.55613 123.397 6.68027 123.036 6.79403C123.029 6.79625 123.022 6.79847 123.015 6.80069C121.597 7.24405 120.194 7.67303 119.288 7.94256C119.057 8.01111 118.859 8.06894 118.71 8.11201C118.591 8.1464 118.441 8.18914 118.358 8.21035C118.347 8.21316 118.326 8.21847 118.3 8.22439C118.3 8.22447 118.3 8.22456 118.299 8.22464C118.285 8.22796 118.213 8.24499 118.134 8.2574C118.118 8.2599 118.084 8.26522 118.043 8.26905C118.033 8.2715 118.022 8.27395 118.012 8.27639C117.871 8.31051 117.727 8.34525 117.571 8.3835C116.964 8.53479 116 8.77164 114.017 9.34481C112.267 9.86283 109.351 10.7619 105.9 12.3257C105.769 12.3853 105.632 12.4458 105.489 12.5069C105.633 12.452 105.773 12.3971 105.907 12.3422C106.021 12.2953 106.136 12.2488 106.25 12.2026C106.88 11.9483 107.516 11.7 108.155 11.4602C108.4 11.3681 108.641 11.2787 108.888 11.1885C109.286 11.0431 109.685 10.9006 110.086 10.7606C110.356 10.6663 110.628 10.5724 110.9 10.4803C110.901 10.4801 110.901 10.4799 110.902 10.4797C111.279 10.3517 111.658 10.2259 112.041 10.1011C112.175 10.0576 112.308 10.0149 112.44 9.97262C112.964 9.8042 113.48 9.64221 114.078 9.46752C114.151 9.4472 114.231 9.4259 114.29 9.41041C114.354 9.39368 114.416 9.37782 114.474 9.36313C114.525 9.35016 114.575 9.33803 114.622 9.3263C114.628 9.32472 114.634 9.32314 114.64 9.32156C114.693 9.30843 114.743 9.29576 114.792 9.28348C114.84 9.27124 114.887 9.25944 114.932 9.24746C114.933 9.24732 114.933 9.24719 114.934 9.24705C114.981 9.23448 115.017 9.22491 115.068 9.21104C115.131 9.19362 115.185 9.1784 115.251 9.15947C115.315 9.14117 115.381 9.12178 115.447 9.10196C115.514 9.08213 115.582 9.06168 115.651 9.04082C115.72 9.01995 115.79 8.99865 115.861 8.97708C115.931 8.95553 116.003 8.93358 116.074 8.91156C116.146 8.88953 116.219 8.86729 116.292 8.84488C116.46 8.79334 116.626 8.75933 116.752 8.74991C116.877 8.74057 116.953 8.75629 116.963 8.79485C116.973 8.83345 116.917 8.89241 116.806 8.96042C116.696 9.02837 116.541 9.09982 116.375 9.15862C116.329 9.17462 116.284 9.19078 116.239 9.20691C116.212 9.21649 116.184 9.22611 116.157 9.23574C116.084 9.26166 116.011 9.28798 115.936 9.31431C115.862 9.34061 115.787 9.36706 115.712 9.39376C115.636 9.42052 115.559 9.44761 115.481 9.47473C115.403 9.50181 115.323 9.52927 115.242 9.5568C115.163 9.58369 115.073 9.61388 114.992 9.64034C114.933 9.65973 114.86 9.68302 114.799 9.7022C114.735 9.72223 114.673 9.74165 114.612 9.76018C114.552 9.77876 114.493 9.79647 114.437 9.81344C114.431 9.81527 114.425 9.8171 114.419 9.81893C114.37 9.83393 114.322 9.8484 114.277 9.86222C114.226 9.87768 114.179 9.89256 114.133 9.90691C114.084 9.92267 114.054 9.93264 114.017 9.945C113.531 10.1142 112.934 10.3355 112.368 10.5525C112.297 10.5797 112.227 10.6069 112.157 10.6338C111.786 10.7774 111.417 10.9231 111.051 11.0714C110.784 11.1792 110.517 11.2887 110.252 11.3995C109.861 11.5627 109.471 11.7291 109.083 11.899C108.843 12.0043 108.607 12.1089 108.368 12.2165C107.745 12.4972 107.125 12.7879 106.51 13.0867C106.436 13.1231 106.361 13.1596 106.286 13.1963C105.694 13.4842 105.097 13.7361 104.493 13.9653C103.808 14.2253 103.088 14.4621 102.385 14.6593C101.867 14.8044 101.329 14.9267 100.836 15.0234C100.565 15.0768 100.307 15.1232 100.046 15.1673C100.045 15.1674 100.044 15.1675 100.044 15.1676C99.8122 15.2067 99.5931 15.2411 99.3683 15.2752C98.888 15.3479 98.416 15.4124 97.9484 15.4723C97.4748 15.5331 97.0096 15.5884 96.538 15.6411C96.0689 15.6936 95.5945 15.7429 95.1195 15.7882C94.6468 15.8331 94.1783 15.8739 93.6865 15.911C93.0402 15.9599 92.3971 15.9987 91.7325 16.0218C91.0758 16.0449 90.4087 16.0525 89.7407 16.0408C89.5075 16.0367 89.2717 16.0298 89.0376 16.021C89.0367 16.0209 89.0358 16.0209 89.0349 16.0208C88.6017 16.0044 88.1647 15.9794 87.7292 15.9453C87.0552 15.8924 86.3807 15.8178 85.7041 15.7172C85.0283 15.6166 84.3502 15.4902 83.6723 15.3325C83.0888 15.1966 82.4947 15.035 81.904 14.8417C81.6838 14.7689 81.47 14.6684 81.2578 14.523C80.5424 14.0441 80.2291 13.2247 80.1674 12.6703C80.0956 12.0917 80.1663 11.6355 80.2568 11.2264C80.3062 11.0112 80.368 10.8042 80.4342 10.6136C80.7585 9.69636 81.1978 8.96931 81.6723 8.28637C82.146 7.61254 82.6751 6.98839 83.2465 6.40673C83.8174 5.82612 84.4425 5.28018 85.1119 4.78338C85.5434 4.46338 85.9859 4.1681 86.4511 3.89175C86.6506 3.76763 86.8363 3.6421 87.0122 3.51243C87.2592 3.33087 87.4802 3.1446 87.6556 2.96412C87.8252 2.79676 87.9681 2.57122 87.8836 2.62252C87.8595 2.64633 87.8062 2.70436 87.7453 2.8841C87.6876 3.06144 87.6119 3.44689 87.7897 3.92419C87.9668 4.39904 88.3144 4.68357 88.5054 4.79672C88.6881 4.90673 88.7834 4.93116 88.8252 4.94972C88.9546 4.9943 88.6385 5.00488 88.3754 5.08176C88.2682 5.10916 88.1359 5.14448 88.0192 5.18022C87.8332 5.23561 87.6566 5.29484 87.46 5.36469C87.1501 5.47679 86.8323 5.60566 86.5169 5.74691C86.2163 5.88307 85.9115 6.03379 85.6237 6.19158C85.3244 6.35581 85.0839 6.50198 84.7998 6.69021C84.3168 6.98713 83.9638 7.19815 83.6117 7.40031C83.4231 7.5058 83.2288 7.60757 83.0413 7.70414C82.9188 7.7668 82.801 7.82698 82.6752 7.89004C81.9511 8.24604 81.2486 8.55139 80.5496 8.83472C79.8449 9.11966 79.152 9.37783 78.4488 9.62337C77.7526 9.8664 77.049 10.095 76.347 10.3097C75.6485 10.5233 74.9485 10.7238 74.243 10.9134C73.5358 11.1036 72.8212 11.2828 72.1257 11.4465C71.7251 11.5408 71.2997 11.6345 70.9004 11.7189C70.6148 11.7792 70.3324 11.837 70.0539 11.8935C69.9415 11.9162 69.8293 11.9387 69.7179 11.9612C69.3458 12.0362 68.9894 12.1077 68.64 12.1815C68.6267 12.1843 68.6135 12.1871 68.6003 12.1899C68.2432 12.2654 67.8925 12.3434 67.5574 12.4246C67.2198 12.5063 66.8897 12.5933 66.563 12.6866C66.222 12.7843 65.9441 12.8696 65.5861 12.9876C65.3522 13.0648 65.1274 13.1396 64.8996 13.2147C64.5575 13.3275 64.2239 13.4379 63.882 13.5507C63.8687 13.5551 63.8554 13.5595 63.8421 13.5639C63.5147 13.672 63.1876 13.7793 62.8616 13.8865C62.7525 13.9223 62.6371 13.9601 62.5274 13.9961C62.1876 14.1077 61.8544 14.2175 61.5194 14.3285C61.1855 14.4392 60.8558 14.5494 60.5266 14.6608C60.197 14.7724 59.8722 14.8836 59.542 14.9982C58.9806 15.1935 58.4343 15.34 57.9545 15.4593C57.4686 15.5795 57.0125 15.6811 56.5688 15.7783C56.4857 15.7965 56.4029 15.8145 56.3195 15.8327C55.9603 15.9105 55.6097 15.9851 55.2617 16.0603C54.8345 16.1526 54.4142 16.2449 53.9949 16.3389C53.5772 16.4323 53.1598 16.5276 52.7443 16.6253C52.328 16.7233 51.9275 16.8197 51.5005 16.9255C51.0744 17.0306 50.6479 17.1448 50.1752 17.2688C49.7103 17.391 49.221 17.5166 48.7201 17.6358C48.2249 17.7542 47.7185 17.8665 47.2107 17.9692C46.7083 18.0712 46.199 18.1652 45.6927 18.2507C45.19 18.3356 44.6831 18.4132 44.1808 18.4837C43.6798 18.5541 43.1577 18.6208 42.6757 18.6766C41.889 18.7679 41.1042 18.8524 40.3154 18.9327C40.1646 18.9482 40.0169 18.963 39.8725 18.9771C39.2344 19.0406 38.5949 19.1009 37.9458 19.1575C37.1487 19.2261 36.3482 19.2908 35.4878 19.3371C35.1171 19.356 34.7392 19.3737 34.2758 19.3761C34.0317 19.3754 33.7925 19.3785 33.3655 19.3422C33.1311 19.3123 32.9036 19.3198 32.2579 19.12C31.9286 18.9794 31.4041 18.9082 30.5409 17.9759C30.1277 17.513 29.7615 16.7372 29.6866 16.0554C29.6032 15.3852 29.7043 14.8987 29.7983 14.5582C29.8977 14.2316 30.0105 13.9669 30.1223 13.7365C30.291 13.3913 30.4583 13.1226 30.6177 12.8864C31.1785 12.0753 31.6623 11.583 32.1199 11.0996C32.1231 11.0964 32.1263 11.0932 32.1294 11.09C32.664 10.5365 33.1522 10.0605 33.614 9.58968C33.665 9.53686 33.7158 9.48453 33.7664 9.43266C33.9777 9.21617 34.1756 9.01797 34.3699 8.82311C34.5642 8.6282 34.7482 8.44372 34.9238 8.26423C35.0995 8.08468 35.264 7.9127 35.4096 7.75372C35.5563 7.59347 35.6836 7.4462 35.7804 7.32477C35.8681 7.21681 35.9315 7.11974 35.9404 7.11975C35.9411 7.12012 35.9414 7.12151 35.9411 7.12421C35.9408 7.14066 35.9152 7.19726 35.8859 7.38176C35.8592 7.55835 35.8334 7.9175 35.9707 8.34411C36.0745 8.67783 36.282 8.99877 36.473 9.19201C36.8653 9.55036 36.8829 9.43793 36.8089 9.4083C36.7297 9.35791 36.5508 9.29014 36.3435 9.23629C36.0742 9.16552 35.7525 9.111 35.4137 9.07478C35.1074 9.04366 34.783 9.02125 34.4475 9.00475C34.1614 8.99055 33.8669 8.98096 33.5697 8.97447C33.1083 8.96438 32.6383 8.96211 32.1616 8.96514C31.3806 8.97002 30.5874 8.98841 29.785 9.0141C29.1234 9.0354 28.4584 9.06135 27.7879 9.09126C27.6484 9.09742 27.5087 9.10372 27.3688 9.11026C26.5665 9.14726 25.7645 9.19197 24.9688 9.24899C24.0851 9.3117 23.1987 9.39193 22.3092 9.48668C21.4192 9.58159 20.5284 9.69046 19.6381 9.81002C19.1228 9.87925 18.6077 9.95202 18.0916 10.028C17.7168 10.0829 17.3347 10.1411 16.9582 10.1993C16.0618 10.3383 15.1692 10.4834 14.2719 10.6345C13.7369 10.7245 13.1986 10.817 12.6633 10.9104C12.3831 10.971 12.1122 11.0297 11.8544 11.085C9.93947 11.4959 8.54824 11.7811 6.70781 12.1327C6.53199 12.167 6.38888 12.1961 6.2143 12.2312C6.18106 12.2379 6.14597 12.2449 6.11008 12.2521C5.88304 12.2976 5.62042 12.3493 5.25594 12.4171C4.52813 12.554 3.40673 12.7443 1.95865 12.9947C1.59283 13.0576 1.35845 13.0922 1.43421 13.0674C1.48743 13.0497 1.67845 13.0045 1.91261 12.9531C1.47837 13.0419 1.04529 13.1314 0.613584 13.2216C0.441324 13.2576 0.279444 13.2909 0.16457 13.3152C0.0580937 13.3376 -1.90314e-06 13.3505 0 13.3505C2.92128e-07 13.3505 0.000357175 13.3504 0.00107525 13.3503C0.0109689 13.3481 0.0887794 13.3303 0.217131 13.2998C0.345469 13.2693 0.513578 13.2285 0.685396 13.1877C1.1412 13.0795 1.59533 12.9718 2.04974 12.8641C2.50439 12.7563 2.95657 12.6491 3.41087 12.5413C3.86423 12.4337 4.31816 12.3259 4.77295 12.2178C5.22611 12.1101 5.68059 12.002 6.13459 11.8939C6.59304 11.7847 7.04118 11.6778 7.49774 11.569C7.77101 11.5038 8.04787 11.4378 8.31919 11.3731C8.42013 11.3491 8.5187 11.3255 8.6179 11.3018C8.69883 11.2825 8.78004 11.2632 8.86348 11.2433C9.74218 11.0338 10.6289 10.8226 11.5088 10.614C12.3932 10.4044 13.2724 10.1971 14.1571 9.99076C15.0408 9.78475 15.9221 9.58154 16.8057 9.38269C17.1628 9.30239 17.524 9.22189 17.8793 9.14393C18.4045 9.02857 18.9294 8.91577 19.455 8.80588C20.3374 8.62136 21.2212 8.44537 22.1062 8.28135C22.7931 8.15404 23.4683 8.03611 24.151 7.92587C24.4183 7.87149 24.6795 7.82005 24.9416 7.77012C25.6991 7.6256 26.4604 7.47904 27.2131 7.34067C25.8641 7.51743 24.7924 7.70787 23.7729 7.90423C23.6346 7.93088 23.5017 7.95696 23.3646 7.98398C21.9847 8.25799 20.6535 8.53767 18.8535 8.90063C18.5162 8.96901 18.1911 9.03616 17.8696 9.10382C13.3556 10.0686 10.6632 10.7394 8.94058 11.1399C7.09807 11.5764 6.30382 11.7584 5.56106 11.9196C4.51127 12.146 2.50805 12.674 1.50394 12.9454C1.13853 13.0429 0.842815 13.1173 0.842908 13.1114C0.843237 13.1055 1.13688 13.0127 1.49933 12.9043C2.55232 12.5905 4.70327 11.9622 5.94682 11.6673C6.50107 11.5353 7.1342 11.3752 8.9383 10.903C10.6244 10.4696 13.2686 9.7439 17.7686 8.68333C18.0934 8.60796 18.4218 8.53297 18.7637 8.4564C20.4965 8.07015 21.7794 7.77326 23.1498 7.47216C23.2821 7.44318 23.4208 7.41312 23.5558 7.38418C23.5567 7.38402 23.5575 7.38387 23.5584 7.38371C24.6847 7.14314 25.9056 6.90231 27.4923 6.67657C27.685 6.6491 27.8771 6.62247 28.0798 6.5955C30.4196 6.28713 33.2086 5.96879 35.534 5.979C36.9238 6.01265 38.1844 6.15482 38.9835 6.89506C39.358 7.2694 39.354 7.77398 39.3206 8.00429C39.2714 8.36521 39.1526 8.64971 39.0174 8.93288C38.5811 9.82006 37.8932 10.6742 36.6541 12.209C36.3988 12.5301 36.1151 12.8756 35.8052 13.2516C35.4058 13.7405 34.9195 14.3048 34.4997 14.9104C34.32 15.2411 34.1806 15.5853 34.1737 15.7857C34.1963 15.7107 34.23 15.5748 34.1881 15.3756C34.1478 15.1744 34.0139 14.9927 33.9156 14.9099C33.7168 14.7491 33.6702 14.7638 33.6452 14.7452C33.6086 14.7277 33.6724 14.7286 33.7289 14.7196C33.8571 14.7045 34.0202 14.6795 34.1846 14.6514C34.5094 14.595 34.8525 14.527 35.1721 14.4636C36.019 14.2947 36.8126 14.0572 37.5694 13.8091C37.7906 13.737 38.0106 13.6627 38.2279 13.5884C38.4917 13.499 38.7486 13.4098 39.0169 13.3209C39.2754 13.2325 39.5488 13.1441 39.8067 13.0629C40.2247 12.9331 40.6494 12.7889 41.1107 12.6329C42.7693 12.0686 44.7511 11.3675 47.3915 10.8515C50.1954 10.304 52.5928 9.87852 54.6618 9.50351C53.1384 9.75299 51.954 9.90814 50.9669 10.0316C50.7797 10.055 50.6009 10.0771 50.4294 10.0981C49.2155 10.247 48.3321 10.3533 47.3981 10.539C42.9358 11.4198 41.263 11.8064 39.4078 12.3874C39.2408 12.4388 39.0698 12.4931 38.9001 12.5491C38.5458 12.6629 38.1869 12.7842 37.7983 12.9115C36.6627 13.2839 35.2582 13.7392 34.0028 13.959C33.8853 13.9795 33.7638 13.9947 33.7302 14.0079C33.7234 14.0192 33.7112 14.0086 33.9053 14.0755C34.0072 14.1282 34.1996 14.1428 34.5635 14.5459C34.7375 14.747 34.8896 15.0829 34.9182 15.3714C34.9504 15.6545 34.9057 15.8516 34.8685 15.9806C34.7953 15.6699 35.605 14.432 36.3066 13.4407C36.307 13.4402 36.3074 13.4397 36.3079 13.4392C36.493 13.1741 36.6834 12.9031 36.8754 12.6266C36.908 12.5795 36.9408 12.5321 36.9738 12.4845C37.4718 11.7528 38.0419 11.006 38.5919 10.1821C38.8651 9.76565 39.1393 9.33768 39.3628 8.80791C39.4706 8.54113 39.5742 8.24408 39.5899 7.86648C39.6155 7.49559 39.4554 7.00724 39.1622 6.73162C39.0058 6.57583 38.8424 6.46626 38.6824 6.37697C38.4336 6.23894 38.1408 6.13118 37.812 6.049C37.1805 5.89181 36.4166 5.8249 35.5397 5.83404C33.8027 5.8606 31.6137 6.0513 29.1217 6.26702C28.5898 6.31373 28.0435 6.35735 27.4593 6.40711C27.1438 6.43397 26.817 6.46264 26.4753 6.49564C26.1787 6.52428 25.8708 6.55603 25.5496 6.59284C24.1644 6.75128 22.4815 7.00751 20.285 7.49843C19.4672 7.68098 18.5801 7.89537 17.6375 8.13739C16.4878 8.43262 15.2677 8.76523 14.025 9.11462C12.9118 9.42759 11.7838 9.75311 10.6712 10.079C7.31372 11.0632 4.24886 12.0028 1.1979 12.9693C1.19727 12.9695 1.19665 12.9697 1.19603 12.9699C0.835582 13.0833 0.552299 13.1701 0.564023 13.1624C0.575784 13.1548 0.875035 13.0469 1.23235 12.9226C4.26303 11.8758 7.29741 10.8639 10.6252 9.8055C11.7144 9.45934 12.8279 9.11083 13.9316 8.77446C15.1657 8.39834 16.3843 8.03822 17.5365 7.71692C18.4968 7.44929 19.4009 7.21161 20.2351 7.00874C22.4711 6.46404 24.1918 6.173 25.6072 5.98851C25.9478 5.94405 26.2683 5.90596 26.5723 5.87193C26.8558 5.8402 27.125 5.81203 27.3832 5.78571C28.0083 5.72199 28.5723 5.66855 29.1246 5.611C31.6171 5.3552 33.7877 5.12965 35.5691 5.07768C36.416 5.0587 37.1779 5.10794 37.8564 5.2507C38.2375 5.33154 38.5952 5.44358 38.9239 5.6026C39.1817 5.72969 39.464 5.89224 39.7578 6.18661C40.198 6.60057 40.4488 7.3821 40.4061 7.91345C40.3815 8.45644 40.2417 8.83238 40.1143 9.15409C39.8475 9.78871 39.5551 10.2441 39.2714 10.6874C38.7027 11.5568 38.1407 12.3114 37.6622 13.0381C37.6566 13.0465 37.6511 13.0549 37.6456 13.0632C37.4617 13.3352 37.2794 13.6013 37.1024 13.8608C37.1021 13.8614 37.1018 13.862 37.1015 13.8626C36.7197 14.4228 36.3546 14.9599 36.0777 15.4343C35.9403 15.6701 35.8264 15.8907 35.7634 16.0596C35.6993 16.222 35.6984 16.3545 35.7741 16.2347C35.8771 15.9337 35.9878 15.0754 35.5426 14.3141C35.1065 13.582 34.6358 13.3858 34.4288 13.2747C33.979 13.0787 33.9108 13.1038 33.8424 13.0784C33.7384 13.0533 33.8085 13.0467 33.8705 13.0299C34.873 12.8322 36.2196 12.4041 37.2869 12.0392C37.7835 11.8709 38.2657 11.7049 38.7486 11.5475C38.8397 11.5172 38.9321 11.4871 39.0257 11.4572C40.9921 10.825 42.7472 10.4054 47.2061 9.49482ZM2.58445 12.8164C3.47921 12.6399 4.20747 12.4967 4.74928 12.3844C4.28815 12.4751 3.82817 12.5664 3.36882 12.6584C3.10675 12.7109 2.84594 12.7634 2.58445 12.8164ZM33.686 14.4712C33.7582 14.3401 33.8348 14.2103 33.9145 14.0813C33.669 14.416 33.4311 14.7636 33.2579 15.1547C33.2101 15.2642 33.1683 15.3772 33.1371 15.4949C33.1116 15.5583 33.1357 15.6909 33.2084 15.7396C33.2737 15.7906 33.3292 15.8034 33.3857 15.8176C33.4931 15.8412 33.5974 15.846 33.6962 15.8484C33.898 15.8518 34.0918 15.8399 34.2884 15.8249C34.0877 15.8363 33.8926 15.8445 33.6903 15.8371C33.5931 15.8329 33.4885 15.8259 33.3848 15.8007C33.3298 15.7858 33.2759 15.7713 33.2171 15.7223C33.152 15.6747 33.1343 15.559 33.1575 15.5006C33.2722 15.1082 33.4795 14.7773 33.686 14.4712ZM47.5815 11.8962C45.084 12.3675 43.2529 12.9995 41.5999 13.5484C41.1294 13.7058 40.6573 13.8588 40.2043 13.9971C40.0103 14.0554 39.8213 14.1155 39.6322 14.1771C40.77 14.0105 41.8299 13.8524 42.6873 13.7228C45.2545 13.3334 46.7242 13.1607 48.017 13.0095C48.3942 12.965 48.7487 12.923 49.1173 12.8758C49.4084 12.786 49.718 12.6926 50.0244 12.6035C50.457 12.4777 50.9236 12.3461 51.3712 12.2234C51.8166 12.1009 52.2736 11.9788 52.7202 11.8628C53.1723 11.7456 53.6192 11.6328 54.0643 11.5225C54.4835 11.4185 54.9012 11.3168 55.3057 11.2173C55.3289 11.2116 55.3521 11.2059 55.3752 11.2002C55.8018 11.095 56.2178 10.9915 56.5968 10.8885C56.9832 10.7833 57.3025 10.6871 57.5819 10.5846C57.9309 10.4569 58.2894 10.3281 58.6435 10.2028C58.9986 10.0771 59.3513 9.95426 59.704 9.83312C60.0572 9.71176 60.4062 9.59299 60.7569 9.47481C60.8701 9.43662 60.9884 9.39679 61.1004 9.35916C61.1522 9.34178 61.2041 9.32422 61.2557 9.30691C60.5554 9.46807 59.8252 9.62984 59.0695 9.79001C57.9774 10.0215 56.8043 10.2393 55.5083 10.4708C53.2973 10.8653 50.7287 11.3023 47.5815 11.8962ZM71.8064 6.48036C71.5064 6.56749 71.0666 6.69928 70.5005 6.86602C70.3653 6.90579 70.2243 6.94758 70.0767 6.99073C70.0803 6.99004 70.0839 6.98907 70.0874 6.98838C70.4627 6.91606 70.812 6.84612 71.1861 6.76648C71.85 6.62507 72.5005 6.47801 73.1468 6.32312C73.798 6.16688 74.4479 6.00137 75.0905 5.82781C75.7324 5.65448 76.3811 5.46824 77.0133 5.27461C77.6525 5.07864 78.2772 4.87532 78.8996 4.65506C79.099 4.58446 79.2947 4.51335 79.4928 4.43932C79.0395 4.57268 78.5731 4.70943 78.0733 4.85082C77.6706 4.96493 77.257 5.07825 76.8156 5.1932C76.6421 5.23864 76.4442 5.28617 76.2005 5.34471C75.2489 5.57253 73.7511 5.91588 71.8064 6.48036ZM84.36 2.1366C84.5098 2.0739 84.6622 2.01234 84.8196 1.95186C85.2525 1.78531 85.68 1.63916 86.1352 1.50483C86.434 1.41674 86.7558 1.33174 87.0844 1.25885C87.225 1.22776 87.3463 1.20258 87.4985 1.17447C87.7344 1.1311 87.9819 1.0935 88.2313 1.06891C86.4771 1.22846 85.1572 1.6977 83.7444 2.22025C83.7264 2.22712 83.7085 2.23432 83.6903 2.24132C83.907 2.20787 84.146 2.16672 84.36 2.1366Z" fill="#F9FAFB"/>
</svg>
