<svg width="69" height="23" viewBox="0 0 69 23" fill="none" xmlns="http://www.w3.org/2000/svg">
<path d="M11.2499 1.26V3.51H2.72994V10.5H10.3499V12.75H2.72994V19.95H11.2499V22.2H-5.83827e-05V1.26H11.2499ZM15.3808 22.2V-3.33786e-06H18.1108V22.2H15.3808ZM38.3636 13.95C38.3636 19.17 34.6136 22.47 29.9336 22.47C25.2836 22.47 21.7436 19.17 21.7436 13.95C21.7436 8.76 25.4036 5.49 30.0536 5.49C34.7336 5.49 38.3636 8.76 38.3636 13.95ZM24.5336 13.95C24.5336 18.12 27.0836 20.07 29.9336 20.07C32.7836 20.07 35.5736 18.12 35.5736 13.95C35.5736 9.81 32.8436 7.86 30.0236 7.86C27.1436 7.86 24.5336 9.81 24.5336 13.95ZM44.6831 13.26V22.2H41.9531V5.76H44.6831V8.43C45.6131 6.6 47.3831 5.46 49.9931 5.46V8.28H49.2731C46.6631 8.28 44.6831 9.45 44.6831 13.26ZM52.1245 13.92C52.1245 8.79 55.5145 5.49 59.9245 5.49C62.9845 5.49 65.0845 7.05 66.0445 8.76V5.76H68.8045V22.2H66.0445V19.14C65.0545 20.91 62.9245 22.47 59.8945 22.47C55.5145 22.47 52.1245 19.02 52.1245 13.92ZM66.0445 13.95C66.0445 10.14 63.4645 7.86 60.4645 7.86C57.4645 7.86 54.9145 10.05 54.9145 13.92C54.9145 17.79 57.4645 20.07 60.4645 20.07C63.4645 20.07 66.0445 17.82 66.0445 13.95Z" fill="black"/>
</svg>
